HIERARCHY
ROOT Hips
{
	OFFSET -14.64140 90.27770 -84.91600
	CHANNELS 6 Xposition Yposition Zposition Zrotation Xrotation Yrotation
	JOINT Spine
	{
		OFFSET 0.00000 13.20850 -1.60436
		CHANNELS 3 Zrotation Xrotation Yrotation
		JOINT Spine1
		{
			OFFSET 0.00000 8.61716 0.00000
			CHANNELS 3 Zrotation Xrotation Yrotation
			JOINT Spine2
			{
				OFFSET 0.00000 8.61717 0.00000
				CHANNELS 3 Zrotation Xrotation Yrotation
				JOINT Spine3
				{
					OFFSET 0.00000 8.61717 0.00000
					CHANNELS 3 Zrotation Xrotation Yrotation
					JOINT Neck
					{
						OFFSET 0.00000 11.07920 1.10792
						CHANNELS 3 Zrotation Xrotation Yrotation
						JOINT Neck1
						{
							OFFSET 0.00000 7.08032 0.00000
							CHANNELS 3 Zrotation Xrotation Yrotation
							JOINT Head
							{
								OFFSET 0.00000 7.08031 0.00000
								CHANNELS 3 Zrotation Xrotation Yrotation
								End site
								{
									OFFSET 0.00000 0.00000 0.00000
								}
							}
						}
					}
					JOINT RightShoulder
					{
						OFFSET -0.01000 7.91373 5.19711
						CHANNELS 3 Zrotation Xrotation Yrotation
						JOINT RightArm
						{
							OFFSET -18.41580 0.00000 0.00000
							CHANNELS 3 Zrotation Xrotation Yrotation
							JOINT RightForeArm
							{
								OFFSET -29.11090 0.00000 0.00000
								CHANNELS 3 Zrotation Xrotation Yrotation
								JOINT RightHand
								{
									OFFSET -24.65040 0.00000 0.00000
									CHANNELS 3 Zrotation Xrotation Yrotation
									JOINT RightHandThumb1
									{
										OFFSET -5.35114 -0.85590 3.97906
										CHANNELS 3 Zrotation Xrotation Yrotation
										JOINT RightHandThumb2
										{
											OFFSET -4.52789 0.00000 0.00000
											CHANNELS 3 Zrotation Xrotation Yrotation
											JOINT RightHandThumb3
											{
												OFFSET -2.46976 0.00000 0.00000
												CHANNELS 3 Zrotation Xrotation Yrotation
												End site
												{
													OFFSET 0.00000 0.00000 0.00000
												}
											}
										}
									}
									JOINT RightHandIndex1
									{
										OFFSET -14.26970 0.00000 2.88139
										CHANNELS 3 Zrotation Xrotation Yrotation
										JOINT RightHandIndex2
										{
											OFFSET -5.48836 0.00000 0.00000
											CHANNELS 3 Zrotation Xrotation Yrotation
											JOINT RightHandIndex3
											{
												OFFSET -3.01859 0.00000 0.00000
												CHANNELS 3 Zrotation Xrotation Yrotation
												End site
												{
													OFFSET 0.00000 0.00000 0.00000
												}
											}
										}
									}
									JOINT RightHandMiddle1
									{
										OFFSET -14.26970 0.00000 -0.09147
										CHANNELS 3 Zrotation Xrotation Yrotation
										JOINT RightHandMiddle2
										{
											OFFSET -6.17441 0.00000 0.00000
											CHANNELS 3 Zrotation Xrotation Yrotation
											JOINT RightHandMiddle3
											{
												OFFSET -3.56743 0.00000 0.00000
												CHANNELS 3 Zrotation Xrotation Yrotation
												End site
												{
													OFFSET 0.00000 0.00000 0.00000
												}
											}
										}
									}
									JOINT RightHandRing1
									{
										OFFSET -12.69180 0.00000 -3.06433
										CHANNELS 3 Zrotation Xrotation Yrotation
										JOINT RightHandRing2
										{
											OFFSET -5.62556 0.00000 0.00000
											CHANNELS 3 Zrotation Xrotation Yrotation
											JOINT RightHandRing3
											{
												OFFSET -3.56744 0.00000 0.00000
												CHANNELS 3 Zrotation Xrotation Yrotation
												End site
												{
													OFFSET 0.00000 0.00000 0.00000
												}
											}
										}
									}
									JOINT RightHandPinky1
									{
										OFFSET -11.11390 0.00000 -6.03719
										CHANNELS 3 Zrotation Xrotation Yrotation
										JOINT RightHandPinky2
										{
											OFFSET -4.52789 0.00000 0.00000
											CHANNELS 3 Zrotation Xrotation Yrotation
											JOINT RightHandPinky3
											{
												OFFSET -2.46976 0.00000 0.00000
												CHANNELS 3 Zrotation Xrotation Yrotation
												End site
												{
													OFFSET 0.00000 0.00000 0.00000
												}
											}
										}
									}
								}
							}
						}
					}
					JOINT LeftShoulder
					{
						OFFSET 0.01000 7.91373 5.19711
						CHANNELS 3 Zrotation Xrotation Yrotation
						JOINT LeftArm
						{
							OFFSET 18.41580 0.00000 0.00000
							CHANNELS 3 Zrotation Xrotation Yrotation
							JOINT LeftForeArm
							{
								OFFSET 29.11090 0.00000 0.00000
								CHANNELS 3 Zrotation Xrotation Yrotation
								JOINT LeftHand
								{
									OFFSET 24.65040 0.00000 0.00000
									CHANNELS 3 Zrotation Xrotation Yrotation
									JOINT LeftHandThumb1
									{
										OFFSET 5.35114 -0.85590 3.97906
										CHANNELS 3 Zrotation Xrotation Yrotation
										JOINT LeftHandThumb2
										{
											OFFSET 4.52789 0.00000 0.00000
											CHANNELS 3 Zrotation Xrotation Yrotation
											JOINT LeftHandThumb3
											{
												OFFSET 2.46977 0.00000 0.00000
												CHANNELS 3 Zrotation Xrotation Yrotation
												End site
												{
													OFFSET 0.00000 0.00000 0.00000
												}
											}
										}
									}
									JOINT LeftHandIndex1
									{
										OFFSET 14.26970 0.00000 2.88139
										CHANNELS 3 Zrotation Xrotation Yrotation
										JOINT LeftHandIndex2
										{
											OFFSET 5.48836 0.00000 0.00000
											CHANNELS 3 Zrotation Xrotation Yrotation
											JOINT LeftHandIndex3
											{
												OFFSET 3.01859 0.00000 0.00000
												CHANNELS 3 Zrotation Xrotation Yrotation
												End site
												{
													OFFSET 0.00000 0.00000 0.00000
												}
											}
										}
									}
									JOINT LeftHandMiddle1
									{
										OFFSET 14.26970 0.00000 -0.09147
										CHANNELS 3 Zrotation Xrotation Yrotation
										JOINT LeftHandMiddle2
										{
											OFFSET 6.17440 0.00000 0.00000
											CHANNELS 3 Zrotation Xrotation Yrotation
											JOINT LeftHandMiddle3
											{
												OFFSET 3.56744 0.00000 0.00000
												CHANNELS 3 Zrotation Xrotation Yrotation
												End site
												{
													OFFSET 0.00000 0.00000 0.00000
												}
											}
										}
									}
									JOINT LeftHandRing1
									{
										OFFSET 12.69180 0.00000 -3.06433
										CHANNELS 3 Zrotation Xrotation Yrotation
										JOINT LeftHandRing2
										{
											OFFSET 5.62556 0.00000 0.00000
											CHANNELS 3 Zrotation Xrotation Yrotation
											JOINT LeftHandRing3
											{
												OFFSET 3.56744 0.00000 0.00000
												CHANNELS 3 Zrotation Xrotation Yrotation
												End site
												{
													OFFSET 0.00000 0.00000 0.00000
												}
											}
										}
									}
									JOINT LeftHandPinky1
									{
										OFFSET 11.11390 0.00000 -6.03719
										CHANNELS 3 Zrotation Xrotation Yrotation
										JOINT LeftHandPinky2
										{
											OFFSET 4.52789 0.00000 0.00000
											CHANNELS 3 Zrotation Xrotation Yrotation
											JOINT LeftHandPinky3
											{
												OFFSET 2.46976 0.00000 0.00000
												CHANNELS 3 Zrotation Xrotation Yrotation
												End site
												{
													OFFSET 0.00000 0.00000 0.00000
												}
											}
										}
									}
								}
							}
						}
					}
					JOINT pCube4
					{
						OFFSET 0.00000 10.91090 1.10792
						CHANNELS 3 Zrotation Xrotation Yrotation
						End site
						{
							OFFSET 0.00000 0.00000 0.00000
						}
					}
				}
			}
		}
	}
	JOINT RightUpLeg
	{
		OFFSET -9.98441 0.00000 0.00000
		CHANNELS 3 Zrotation Xrotation Yrotation
		JOINT RightLeg
		{
			OFFSET 0.00000 -42.11790 0.00000
			CHANNELS 3 Zrotation Xrotation Yrotation
			JOINT RightFoot
			{
				OFFSET 0.00000 -45.00020 -0.00001
				CHANNELS 3 Zrotation Xrotation Yrotation
				JOINT RightForeFoot
				{
					OFFSET 0.00000 -3.74820 0.00000
					CHANNELS 3 Zrotation Xrotation Yrotation
					JOINT RightToeBase
					{
						OFFSET 0.00000 0.06325 14.43120
						CHANNELS 3 Zrotation Xrotation Yrotation
						End site
						{
							OFFSET 0.00000 0.00000 0.00000
						}
					}
				}
			}
		}
	}
	JOINT LeftUpLeg
	{
		OFFSET 9.98441 0.00000 0.00000
		CHANNELS 3 Zrotation Xrotation Yrotation
		JOINT LeftLeg
		{
			OFFSET 0.00000 -42.11800 0.00000
			CHANNELS 3 Zrotation Xrotation Yrotation
			JOINT LeftFoot
			{
				OFFSET 0.00000 -45.00070 0.00000
				CHANNELS 3 Zrotation Xrotation Yrotation
				JOINT LeftForeFoot
				{
					OFFSET 0.00000 -3.74824 0.00000
					CHANNELS 3 Zrotation Xrotation Yrotation
					JOINT LeftToeBase
					{
						OFFSET 0.00000 0.06325 14.43110
						CHANNELS 3 Zrotation Xrotation Yrotation
						End site
						{
							OFFSET 0.00000 0.00000 0.00000
						}
					}
				}
			}
		}
	}
}
MOTION
Frames: 4
Frame Time: 0.050000
0.04052900713688062 0.043406188222246345 -0.04312205989195528 0.007357009705859956 0.003351289042204374 -0.04391408504670786 -1.3386010979087974 0.7055387801046282 -0.9499255138753756 -0.9114325233338166 3.8560675800617705 0.3574624253682775 -1.1558327838505864 -1.7387804982341997 -0.7505336111337917 0.9772210162147295 0.5380234721203422 -0.8223638772497851 0.7790340193052406 12.399836414723426 -2.617242759749587 0.02675766217772971 -0.6854997818709171 -8.06255133096083 0.9130017093285192 -16.126483626933837 -0.7041889608498062 -4.630566866438798 1.5228219400509886 -15.70209068037961 72.83718355452311 22.994101710982218 3.636633988146309 2.3591005233982396 2.0638432813082166 41.403109181915795 21.12111326579555 -0.10718072519164572 -3.8460295997632628 4.5279075116537495 -0.14327117918310525 -1.5771663630373054 -0.013213991980644418 -0.030698062211155727 -56.210070367229136 0.02394209057712476 -0.012680140221291027 -56.212157587712 -38.81590024745827 -0.012075017224302582 0.0013300122523891775 -0.02911136458810169 -0.022721517325610324 -0.030724688908468738 -0.007684916151480413 0.007524967094788486 -0.03383441415316252 -36.69804478239879 0.01689210171652632 -0.010826569035080617 0.013779382678762976 -0.02965455093400511 -0.02368267710351307 0.011705436033402168 0.011887647993315568 0.0014193883852449906 -19.79540394785807 0.011853267291898055 0.041228300535847646 -0.004495305672845857 0.02088655159518699 0.04801430543854116 0.010243318001971135 -0.03761348890298739 0.011935171379135546 24.057039141771497 0.01989815681953176 0.018285714895890044 28.831189430211477 -0.009435963543897665 -0.037165181199219806 28.891466722160615 0.04190327755136239 0.014245052555150428 3.563600789187081 0.9896369565008826 13.45327745674226 -71.76432259893616 26.379331990822518 -0.2094124851170241 -3.8390064184385166 -8.744697389371671 -42.215838867026925 -14.229690834963291 -0.6380732463818153 2.912145467274227 -0.5225417451610094 0.0451011871405098 -8.16961006556521 0.0494178464890745 0.04559970061447627 44.58418587639405 0.023143020916658822 -0.04324587213834054 44.59384976060281 12.447740457755222 0.011883423394429892 -0.026355937909502726 -0.014525852614354066 0.021681283931682966 -0.018154759525544704 -0.012742806215632452 0.037649462923843253 0.0021616278354209995 11.076423838074838 0.030726499677124458 -0.02819996429565842 0.003072491732851321 -0.012631485182952875 -0.025162557148625933 0.041970617387958 0.017714609303857286 0.02088071858417409 4.81067403251553 -0.02005725473641552 0.022950547393878057 -0.0024206142430971233 -0.013839227051929385 -0.04266547557619342 -0.00782927993487688 -0.019382631147645143 0.00570378171574059 -5.557717899271509 0.0059890731443293386 0.004615844860767356 -6.735592581692239 0.04654436660330054 -0.03991998729983137 -6.740504162376413 -0.027315884973060534 0.04533527878390424 0.027987922020415668 7.772128159157659e-05 0.010998926701949923 8.019466771246453 3.477263913812437 -19.24910891591839 -0.04236185837888322 10.415987357171444 0.02452814608466287 -5.599164826348728 -15.637722253654118 3.1938298817419444 0.049499653240483776 -0.01510400055371374 -0.009234775492867253 -0.027031463014956635 4.648727718605912 0.022274166155166836 12.439250067906519 -8.235622830110003 6.848706192759963 -0.018964215443284648 46.41088857217423 -0.02245068648556466 -4.328061084859812 -14.731440122491884 -3.8441034508446315 0.003925283161789063 0.04285224175361442 -0.027017648700324772 -0.025867086813069037 -10.750889510240805 -0.03688299847405399 
0.017585754810879834 -0.024132036927460743 0.03222435372225036 0.006712484934040111 -0.002208215251750222 0.005691853785185732 -1.2080376428846276 0.7688718073058571 -1.061817838453701 -0.9308765053018713 3.9101393109215694 0.34803721052739695 -1.2355630048291737 -1.6927515847551986 -0.7802240539604367 0.9696193978171588 0.546672903873197 -0.7644806477635028 0.8828096087243429 12.356169754696603 -2.8359417676486283 0.0482843242417748 -0.7776678164850963 -8.51452388086022 1.0187618612268026 -16.35482997359558 -0.7223766792973719 -4.668196655832102 1.5597732275350646 -15.767342277410872 73.06852165795556 22.631808472778033 3.3788865194909405 1.9499170533011354 1.9891937886863975 42.018814509539304 20.746515662666244 -0.1098731964995318 -3.874330574665604 4.514901111226321 -0.08453722710383813 -1.61817911628958 -0.029955193281729527 -0.004202058865839326 -56.22638676980718 -0.00021562397678456615 0.047029102335980566 -56.21795792827933 -38.784475427471904 -0.024061409299934097 0.028015844263510056 -0.02244702267324837 -0.04592341433055702 -0.023973167509069287 -0.042857946882214636 0.005001325195376385 -0.001996912063626218 -36.673150166246494 0.03447320625581189 0.016972808261566157 0.0028009019930460184 0.04107686107535677 -0.04285508676507932 0.03843029450674531 0.029306372312365377 -0.03272600961390574 -19.804479125848925 0.018574867768803047 0.03411220095482975 -0.01836542256241307 0.044272698720725014 -0.009948137834961701 0.01259561021328753 -0.003996353713601119 -0.013503441598640533 24.032546493881142 0.0021624431641058 -0.018518747743752107 28.870292027424675 0.015198407309631488 -0.03580029606184613 28.82485543497928 -0.005802394236068233 -0.013891999479201448 3.4696105581721435 0.9222180785948646 13.520868247083367 -71.99552649058724 26.86705824366175 -0.004961949181883207 -2.1823047295154794 -9.05856022439542 -42.693959213593324 -13.948438790392116 -0.7343145291588611 3.1444852655846622 -0.44434013827335156 0.07063352921439603 -8.172702092008665 -0.008824576247784224 0.027980225454488243 44.593517173258135 -0.003720865292908561 0.03807258161562841 44.610803915256206 12.483562298451618 0.007539074999496356 -0.025870915059871217 -0.0029546032200890838 0.042879871019837326 0.030429324801725447 -0.02635298494194717 0.03122912530747615 -0.008249544448089332 11.137756762806179 0.01426263533991017 0.008382189295337378 -0.024810338755012516 -0.04441185885332612 0.03220611110713637 -0.02344395514943947 0.0046741551790064 -0.007266021602368876 4.743819606813386 -0.021879865177751954 -0.03801442635603196 -0.034627757846492434 -0.029779807921989088 0.015760892740878538 0.038676812611686984 0.010256800493183702 -0.027845546726575746 -5.605514153437051 0.00756117916187186 -0.02302801318896603 -6.685556622897672 -0.0021174565815853057 -0.047208027506331275 -6.689169900077192 0.02868633399992746 0.007123582228585964 -0.014022290980720995 -0.04429315876850727 -0.01885210182188068 8.031892017623948 3.504067117987359 -19.188732736939624 -0.0056379895917362585 10.43013629138376 0.04521410726623513 -5.60544360525296 -15.655737046584333 3.1685530785610534 -0.008181771566086012 0.034262549463888806 0.016331235722071746 -0.0029747332152803953 4.675226230966125 -0.049253485495351 12.419242951348455 -8.203196206798877 6.922647318909708 -0.023695641513454865 46.377364024329665 0.019355193324417774 -4.335949735192584 -14.736349521345039 -3.840954961635692 -0.031893983939197026 0.032900085881683645 0.019909385185332994 -0.04742811028900988 -10.786452017348022 0.01033597737790401 
0.036759764931755916 -0.035830648342736304 0.040527589890480366 -0.010582030009474722 -0.01724368891266777 -0.028266127293181037 -1.2040345676873434 0.8490237688975821 -1.0644415824752667 -0.9697894656508919 3.869081609261371 0.33018562914358374 -1.238548639732206 -1.7059757560253561 -0.7884880046798056 1.072146394519072 0.5533445932830341 -0.8262917308229858 0.9798869870077355 12.323298567048438 -3.095338944363367 0.11077931637878947 -0.8844892287844281 -8.959659642837078 1.1209169643818269 -16.57181845566074 -0.7719399509631035 -4.786092560776418 1.5272667401505675 -15.93048766990451 73.04567419189046 22.240959262345093 2.876194145912872 1.6031057500658878 1.9264355593031715 42.373583462514326 20.471666088916596 -0.05553567448901173 -3.8153995306517476 4.539586277867061 -0.16619213865335342 -1.5793623474443643 -0.011434902239803067 0.03816924987641023 -56.26684664175788 -0.04075656009668057 -0.025907674430670127 -56.21256999899822 -38.74814203356742 0.0012636381786561234 0.04148965769493638 0.0037495164596596854 -0.0008119049158705945 0.02079660996400373 -0.011887457132401427 0.029368130694840268 -0.010804800872322782 -36.71451398865257 -0.02771373013495588 -0.0025640173347633408 -0.02617335128583855 -0.010752892707440906 -0.03665062444938467 0.04204839146047138 -0.005316762766603076 0.024548513909241666 -19.726823203096895 -0.022429289257381878 -0.04497035740911159 -0.016415328384550135 0.0030348519102176247 0.025233924309453787 -0.0015380485894632065 0.018987208550455617 0.024192158603432143 24.049847422673864 -0.042867588508129134 -0.04453530162578087 28.881471799869697 -0.04930334867949771 -0.006829619527710526 28.83996666306918 0.004892851723189212 -0.002275458651074236 3.5145413567335773 0.9499280094115231 13.519895098877457 -72.22701435797829 27.350143309311168 0.18994336264519163 -1.2077788012093365 -9.019108084571691 -42.811641186132555 -13.849133146882092 -0.7048542354155182 3.2401064394056784 -0.4921065072444931 0.044912847200413844 -8.137350998639919 -0.03236232508612365 0.035916833835262674 44.51987625636878 0.030871610615638218 0.010190519716697405 44.567073820359525 12.445518820918894 -0.034322054443408884 0.0123710549345903 -0.03181940031144653 0.011071270521384045 -0.01795027984035068 -0.03559378703799908 0.009254390692944654 -0.02575822045107278 11.150863323602099 -0.012601102458716809 -0.008511605296673799 0.010668308959342954 -0.04025002923531241 -0.011058954348025299 0.005983665561402754 -0.01510779261594787 -0.03762077487522008 4.742575725800697 0.03818710234349524 0.0479128505446701 0.008765873544151563 -0.04217512953775374 -0.015136815804318523 0.0032594032967375418 0.03500698555224784 0.015932658142463304 -5.595627697501513 -0.0387003300043363 0.017902543247455018 -6.695990440908121 0.03958849850352947 -0.010756693948319808 -6.7077278397751785 -0.03218522529855676 0.02882020303996705 0.049529387693506705 0.03195595784928891 -0.02829092060999442 8.090647437156454 3.525384371691159 -19.258355806980166 0.025801938753477357 10.36529176803359 0.06204699838508686 -5.572864255028568 -15.660660929276968 3.164286612264473 -0.003513958710989238 0.023440163937274466 -0.018340261086502215 0.04471538180836841 4.694266910418907 -0.04528394693697537 12.425260999158894 -8.248474854708025 6.928894184279736 0.021929466377135613 46.356933681151496 -0.013652236369052599 -4.312720799042907 -14.771709051694708 -3.857879227743286 -0.019500392373822176 0.045144094881336826 0.00580938518500679 -0.009834980188735083 -10.77867250916379 -0.04674751120117161 
0.019255179612041654 0.02857753263971527 0.02065598276201906 -0.018279969301233552 -0.036315185334182355 -0.010911150103767728 -1.1350492080548706 0.9144847406381171 -1.0184330568393727 -0.9256804944383923 3.9315410270734223 0.3384968255853261 -1.260277910037301 -1.6600214043835182 -0.8529373301924729 1.046295571133049 0.49831313657952964 -0.7382576907932599 1.0273539214880165 12.307414915415515 -3.188632753731961 0.07767870186094353 -0.947560099657647 -9.185142662858764 1.2469531584087903 -16.740336847641576 -0.8017525197550097 -4.958142954639553 1.615420475177775 -16.046256579821165 72.90868417611213 22.01211769899288 2.1191079813848694 1.0018527061752487 1.5836814998522257 42.385516970581826 20.296062075027077 -0.10544893511451761 -3.8560523318352655 4.564921013832609 -0.1641807068943063 -1.5900114221822417 0.011221308065123035 0.015365334037452763 -56.221500348123726 -0.0028916331049018266 0.045839742417347486 -56.240023600190035 -38.810167673055815 -0.045322827132431714 0.009497235125672512 0.012166701001507336 0.01521847768753771 0.049294592425703394 0.0035868104907317636 0.039516547493924394 0.005920514398675545 -36.65104577882791 0.0028097881516592044 -0.041462693214371946 0.04753889181081882 -0.03685180455474535 -0.03601534914729667 -0.003028647904358615 0.02674416362675679 -0.02817390492038574 -19.744442913341224 -0.034260386058953325 0.0004186289148218523 0.01675020157717664 0.0032829210692957075 0.03933969888726463 -0.00473017533919054 -0.00904440948762221 0.01657114985581325 24.071623356509463 -0.010667650780856177 0.041625499890528384 28.884887128454515 0.002179691549362759 0.01485487846340035 28.86926991135908 -0.008661281537110162 -0.006794876767195869 3.5113100794521133 0.9845937991848963 13.613425153309137 -72.1719054375299 27.67849217190853 0.4082524341804244 -0.4711813733139666 -9.198685338022573 -42.71227563488166 -13.87715577850894 -0.814893217906789 3.3466465364316482 -0.44250414761828794 0.08082340979014793 -8.14650854766534 -0.01760331997432409 0.02892701986438783 44.56818474563094 -0.00490712971113726 0.03234255830319019 44.57929412245676 12.481450335024679 0.03322843430613421 -0.017488641003444202 0.04543680890983677 0.01046347861493317 -0.024546835369053784 -0.014139245036892688 -0.007528106803996042 0.02312770141212428 11.129310107063814 0.020282321025696784 -0.027199026914773956 0.030967613101674035 -0.02572254426316872 0.016942001824784957 -0.008880492029528248 -0.04590479023965772 -0.041072475651137356 4.789904027857078 -0.030825437336502663 0.0362143432425117 0.005546274107671435 -0.007511362704448189 -0.013230560995590985 -0.011983398742613498 0.0024352316101435606 -0.009304767341339929 -5.562257036463232 -0.031089394166082772 0.004756320997201355 -6.675978635003446 0.022387257449846498 0.042586525238601805 -6.712802306951638 -0.04111015867601484 0.008131971845012968 -0.017952548435505058 0.006263796011027891 0.041228030402065526 8.014259950851807 3.4839548580546293 -19.19454928539131 -0.03881549066680896 10.350783180086404 -0.018354420931237323 -5.636126417436301 -15.610088398103276 3.2036188654342257 0.03523616590180999 -0.02608415766552438 -0.0034267924046615934 0.0008176463337346271 4.707363735956475 0.01632436688697438 12.429947695431094 -8.251416860377796 6.894604209513582 0.0376855252933679 46.37901415164564 0.03147030532755743 -4.331251807310942 -14.779217858656324 -3.8555620298967312 -0.006451675065874314 0.04662601575097204 0.023022011989264644 -0.0024888693685197793 -10.753596834678369 -0.03595978103434936 
